<svg xmlns="http://www.w3.org/2000/svg" xmlns:xlink="http://www.w3.org/1999/xlink" version="1.1" id="svg-edited-version" x="0px" y="0px" viewBox="0 0 595.3 595.3" style="enable-background:new 0 0 595.3 595.3;" xml:space="preserve" class="injected-svg" data-src="https://preview.pixlr.com/images/svg/100/1/fd905bf970488625526b9711ab7d5b06d3850afe3c7c75523260d78d3f2c577d.svg">
<metadata><?xpacket begin="﻿" id="W5M0MpCehiHzreSzNTczkc9d"?>
<x:xmpmeta xmlns:x="adobe:ns:meta/" x:xmptk="Adobe XMP Core 5.6-c111 79.158366, 2015/09/25-01:12:00        ">
   <rdf:RDF xmlns:rdf="http://www.w3.org/1999/02/22-rdf-syntax-ns#">
      <rdf:Description xmlns:xmp="http://ns.adobe.com/xap/1.0/" xmlns:xmpMM="http://ns.adobe.com/xap/1.0/mm/" xmlns:stEvt="http://ns.adobe.com/xap/1.0/sType/ResourceEvent#" rdf:about="">
         <xmp:MetadataDate>2017-03-15T14:11+08:00</xmp:MetadataDate>
         <xmpMM:InstanceID>xmp.iid:c142997b-5d37-b54e-a313-d6881f9c09fa</xmpMM:InstanceID>
         <xmpMM:DocumentID>xmp.did:d15512e6-e978-ee46-878c-31297a9a4166</xmpMM:DocumentID>
         <xmpMM:OriginalDocumentID>xmp.did:d15512e6-e978-ee46-878c-31297a9a4166</xmpMM:OriginalDocumentID>
         <xmpMM:History>
            <rdf:Seq>
               <rdf:li>
                  <rdf:Description>
                     <stEvt:action>saved</stEvt:action>
                     <stEvt:instanceID>xmp.iid:d15512e6-e978-ee46-878c-31297a9a4166</stEvt:instanceID>
                     <stEvt:when>2017-03-15T14:06:55+08:00</stEvt:when>
                     <stEvt:softwareAgent>Adobe Bridge CC (Windows)</stEvt:softwareAgent>
                     <stEvt:changed>/metadata</stEvt:changed>
                  </rdf:Description>
               </rdf:li>
               <rdf:li>
                  <rdf:Description>
                     <stEvt:action>saved</stEvt:action>
                     <stEvt:instanceID>xmp.iid:c142997b-5d37-b54e-a313-d6881f9c09fa</stEvt:instanceID>
                     <stEvt:when>2017-03-15T14:11+08:00</stEvt:when>
                     <stEvt:softwareAgent>Adobe Bridge CC (Windows)</stEvt:softwareAgent>
                     <stEvt:changed>/metadata</stEvt:changed>
                  </rdf:Description>
               </rdf:li>
            </rdf:Seq>
         </xmpMM:History>
      </rdf:Description>
   </rdf:RDF>
</x:xmpmeta>
                                                                                                    
                                                                                                    
                                                                                                    
                                                                                                    
                                                                                                    
                                                                                                    
                                                                                                    
                                                                                                    
                                                                                                    
                                                                                                    
                                                                                                    
                                                                                                    
                                                                                                    
                                                                                                    
                                                                                                    
                                                                        
<?xpacket end="w"?></metadata>
<style type="text/css">
	.st0{fill:#201D1E;}
</style>
<g>
	<rect x="182.2" y="280.4" class="st0" width="44.3" height="44.3" fill="#000000" originalFill="#000000"/>
	<rect x="339.6" y="280.4" class="st0" width="44.3" height="44.3" fill="#000000" originalFill="#000000"/>
	<rect x="260.9" y="280.4" class="st0" width="44.3" height="44.3" fill="#000000" originalFill="#000000"/>
	<rect x="182.2" y="362.1" class="st0" width="44.3" height="44.3" fill="#000000" originalFill="#000000"/>
	<rect x="260.9" y="362.1" class="st0" width="44.3" height="44.3" fill="#000000" originalFill="#000000"/>
	<path class="st0" d="M434.8,357.1V167c0-10.7-8.7-19.4-19.4-19.4h-36v-22.4c0-7.2-5.8-13-13-13c-7.2,0-13,5.8-13,13v22.4h-57.3   v-22.4c0-7.2-5.8-13-13-13c-7.2,0-13,5.8-13,13v22.4h-57.3v-22.4c0-7.2-5.8-13-13-13c-7.2,0-13,5.8-13,13v22.4h-36   c-10.7,0-19.4,8.7-19.4,19.4v280.1c0,10.7,8.7,19.4,19.4,19.4h198.6c12.1,10.4,27.9,16.7,45.1,16.7c38.3,0,69.5-31.2,69.5-69.5   C464,390.3,452.4,369.8,434.8,357.1z M186.7,174.3v8.4c0,7.2,5.8,13,13,13c7.2,0,13-5.8,13-13v-8.4c4.6,3.8,7.6,9.4,7.6,15.9   c0,11.4-9.2,20.6-20.6,20.6c-11.4,0-20.6-9.2-20.6-20.6C179.2,183.7,182.1,178.1,186.7,174.3z M270.1,174.6v8.1c0,7.2,5.8,13,13,13   c7.2,0,13-5.8,13-13v-8.7c4.8,3.8,8,9.6,8,16.2c0,11.4-9.2,20.6-20.6,20.6c-11.4,0-20.6-9.2-20.6-20.6   C262.9,183.9,265.7,178.4,270.1,174.6z M353.4,174.3v8.4c0,7.2,5.8,13,13,13c7.2,0,13-5.8,13-13v-8.4c4.6,3.8,7.6,9.4,7.6,15.9   c0,11.4-9.2,20.6-20.6,20.6c-11.4,0-20.6-9.2-20.6-20.6C345.8,183.7,348.8,178.1,353.4,174.3z M148.7,447.1V253.6h268.8v94.5   c-7.2-2.6-15-4-23.1-4c-38.3,0-69.5,31.2-69.5,69.5c0,13,3.6,25.1,9.8,35.5h-184C149.6,449.1,148.7,448.2,148.7,447.1z    M394.4,465.8c-28.8,0-52.2-23.4-52.2-52.2s23.4-52.2,52.2-52.2c28.8,0,52.2,23.4,52.2,52.2S423.2,465.8,394.4,465.8z" fill="#000000" originalFill="#000000"/>
	<path class="st0" d="M426.7,425.5l-28-14.6v-27.8c0-2.4-1.9-4.3-4.3-4.3c-2.4,0-4.3,1.9-4.3,4.3v30.4c0,1.6,0.9,3.1,2.3,3.8   l30.3,15.8c0.6,0.3,1.3,0.5,2,0.5c1.6,0,3.1-0.9,3.9-2.3C429.7,429.3,428.9,426.6,426.7,425.5z" fill="#000000" originalFill="#000000"/>
</g>
</svg>